<svg width="75" height="75" viewBox="0 0 75 75" fill="none" xmlns="http://www.w3.org/2000/svg">
<circle cx="37.5" cy="37.5" r="37.5" fill="black"/>
<path d="M28.4984 50V23.8182H38.3166C40.3279 23.8182 42.0154 24.1932 43.3791 24.9432C44.7512 25.6932 45.7868 26.7244 46.4856 28.0369C47.193 29.3409 47.5467 30.8239 47.5467 32.4858C47.5467 34.1648 47.193 35.6562 46.4856 36.9602C45.7782 38.2642 44.7342 39.2912 43.3535 40.0412C41.9728 40.7827 40.2725 41.1534 38.2527 41.1534H31.7456V37.2543H37.6135C38.7896 37.2543 39.7527 37.0497 40.5027 36.6406C41.2527 36.2315 41.8066 35.669 42.1646 34.9531C42.5311 34.2372 42.7143 33.4148 42.7143 32.4858C42.7143 31.5568 42.5311 30.7386 42.1646 30.0312C41.8066 29.3239 41.2484 28.7741 40.4899 28.3821C39.7399 27.9815 38.7726 27.7812 37.5879 27.7812H33.2413V50H28.4984Z" fill="white"/>
</svg>
